<?xml version="1.0" encoding="UTF-8"?>
<svg id="Capa_2" data-name="Capa 2" xmlns="http://www.w3.org/2000/svg" xmlns:xlink="http://www.w3.org/1999/xlink" viewBox="0 0 147.95 74.94">
  <defs>
    <style>
      .cls-1 {
        fill: url(#Degradado_sin_nombre_7-2);
      }

      .cls-1, .cls-2 {
        stroke-width: 0px;
      }

      .cls-2, .cls-3 {
        fill: url(#Degradado_sin_nombre_7);
      }

      .cls-4 {
        clip-path: url(#clippath);
      }
    </style>
    <linearGradient id="Degradado_sin_nombre_7" data-name="Degradado sin nombre 7" x1="0" y1="37.47" x2="147.95" y2="37.47" gradientUnits="userSpaceOnUse">
      <stop offset="0" stop-color="#fceb33"/>
      <stop offset=".14" stop-color="#f7c72b"/>
      <stop offset=".3" stop-color="#f4a524"/>
      <stop offset=".47" stop-color="#f08b1e"/>
      <stop offset=".64" stop-color="#ee781a"/>
      <stop offset=".81" stop-color="#ed6c17"/>
      <stop offset="1" stop-color="#ed6917"/>
    </linearGradient>
    <clipPath id="clippath">
      <path class="cls-2" d="m16.49,62.41H0V28.25h16.49v34.16Zm12.73-5.01c3.34-3.34,5.01-7.37,5.01-12.09s-1.67-8.78-5.01-12.12c-3.09-3.09-6.8-4.76-11.11-4.98v34.18h.07c4.28-.24,7.96-1.91,11.04-4.98Zm7.5,5.16h16.15l-.02-1.27v-31.79l-.02-1.27h-16.1l.02,1.27v31.79l-.02,1.27Zm17.44-.02l34.66.02-17.33-34.45-17.33,34.43Zm35.76-.05h16.93V28.32h-16.93v34.16Zm57.18-34.79c-.07.19-.36.13-.46-.01-.16-.24-1.48-2.88-1.67-2.9-.06,0-1.97,1.57-2.15,1.68-.12.07-.34.04-.4-.1-.28-.77-.12-1.26-.06-2.04.04-.21.08-.43.1-.65-.22-.68-.5-.69-.83-.04-.53.27-1.01,1.04-1.4,1.44-.17.17-.44.04-.45-.17,0-.82.04-1.62.12-2.43-.6.44-1.11.93-1.54,1.51-.05.07-.19.09-.28.06-1.06-.39-2.12-.75-3.21-1.06-.13-.04-.19-.19-.14-.29.39-.79.72-1.56.88-2.4-.82.57-1.64,1.13-2.47,1.7-.17.12-.4-.03-.39-.2.04-.92.12-1.83.25-2.73-.58.49-.97.96-1.37,1.68-.05.09-.2.17-.32.1-1.03-.52-2.01-.78-3.2-.84-.15,0-.23-.14-.22-.25.02-.47,0-.93-.06-1.4-.32.33-.64.64-1,.94-.07.06-.15.05-.23.02-.08-.03-.13-.09-.15-.16-.44-2.02-.62-.53-1.83-.76-.02,0-.03,0-.05-.01v.02c.64.31,1.31.64,1.98.99,3.25,1.72,6.47,3.93,8.11,6.8.81,1.42,1.48,3.15.93,4.68-.52,1.45-1.96,2.49-3.33,3.36-.19.12-.39-.07-.32-.22-.06-.01-.12-.05-.14-.1,0-.03,0-.06,0-.09.5-1.2.89-2.4,1.14-3.65-.59.56-1.22,1.05-1.95,1.52-.14.09-.32.01-.37-.11-.01-.03-.02-.06-.01-.09.09-.93.31-1.74.71-2.55-.54.29-1.07.58-1.61.87-.04.02-.08.03-.12.03.28.6.56,1.19.82,1.79.1.22.2.45.3.67.25.57.49,1.13.73,1.7,1.44,3.44,2.65,6.97,3.18,10.56.68,4.63,1.16,9.28,1.62,13.92.19,1.95.33,3.9.32,5.85,0,.92.31,2.69-.13,3.79.55-.51,1.16-.96,1.85-1.37.16-.09.41.05.32.21-.48.88-1.45,2.18-1.61,3.29.83-.8,1.77-1.43,2.99-1.8.24-.07.41.15.29.32-.41.58-.84,1.17-1.25,1.75.87-.49,1.97-.92,2.74-.53.15.07.22.25.06.35-1.81,1.11-3.61,2.29-4.12,4.26-.03.11-.12.16-.22.18-.04.11-.15.2-.32.19-4.57-.17-9.16-.67-13.59-1.82-.18-.05-.13-.27.02-.3-.55-1.48-1.23-2.89-2.12-4.27-.17-.26.28-.42.48-.23.73.68,1.48,1.36,2.18,2.07,0-1.8-.33-3.57-.99-5.31-.09-.23.24-.42.44-.21.97,1.03,1.64,2.17,2.25,3.35.03-.61-.02-1.2-.18-1.82-.05-.22.34-.37.49-.16.1.13.19.26.28.4,2.14-7.35,1.14-15.13,1.32-22.71.09-3.83-.11-7.61-1.06-11.4-.23-.93-.52-1.82-.84-2.71-.14-.39-.3-.78-.46-1.17v1.13s.04.02.06.03c.04.02.06.05.08.08.03.07.02.15-.03.19-.04.03-.07.07-.1.11v32.21l-1.32.07-15.78-16.44v-17.74l.98.98c-.29-1.66-.18-3.36.3-4.94.66-2.19,2.04-4.15,3.96-5.66.83-.65,2.17-1.05,2.92-1.73.01,0,.03-.02.04-.03.3-.01.5-.12.59-.31-.17-.09-.33-.2-.45-.35-.11.09-.03-.2-.19.35.11.08.14.25-.03.31l-.5.18c-.08.03-.19,0-.24-.06-.59-.7.06-.14-.54.09-.66.26-2.13.84-2.43,1.32-.07.11-.26.15-.36.03-.18-.22-1.02-1.6-1.31-1.57-.1.01-.27.45-.46.98-.27.77-.56,1.75-.61,1.88-.06.15-.31.12-.38,0-.14-.24-.27-.48-.41-.73.04.44-.04.87-.32,1.26-.93,1.26-3.66.67-4.15,2.27-.04.16-.31.09-.34-.05-.09-.4-.15-.81-.22-1.22-.06-.36-.12-.71-.22-1.06-.05-.17-.05-.33-.04-.43-.02.1-.06.27-.14.53-.41,1.4-1.04,2.76-1.61,4.12-.06.15-.32.13-.4,0-.31-.53-.58-1.06-.8-1.61-.18.83-.36,1.66-.56,2.49-.01.05-.05.08-.08.1-.04.13-.25.21-.38.07-3.12-3.35-.85-7.55,2.58-9.69,3.99-2.5,10.08-3.75,14.88-1.72-.3-.15-.61-.37-.76-.49-.44-.38-.06-.95-.38-1.21-.47-.37-1.39.46-1.94-.05-.11-.11-.06-.29-.1-.41-.1-.27.24-.58-.21-.73-.18-.06-.92.4-1.09.48-.12.06-.29-.07-.26-.18.11-.4.26-.75.48-1.09-.54.17-1.01.37-1.55.65-.05.03-.13.05-.19.02-.55-.27-1.1-.53-1.65-.81-.11.02-.24-.04-.24-.17.13-1.53-.44-.5-1.56-.66-.28-.04-.38.05-.55-.2-.13-.2.16-.43.11-.54-.17-.36-2.05.34-2.43.44-.12.03-.28-.04-.25-.16.13-.53.9-.94,1.57-1.29-1.41.21-2.83.42-4.25.6-.03,0-.06,0-.08-.01,0,0,0,0-.02.01-.16.07-.29-.15-.16-.23,4.71-3.13,12.46-2.37,16.56,1.61.41-.32.83-.61,1.28-.87-.42.03-.81.11-1.21.27-.1.04-.2-.02-.25-.09-.39-.57-.77-1.52-.65-2.17.06-.3.25-.29.4-.56.2-.39.19-.21-.29-.27-.3-.04-.66,0-.97,0-.17,0-.32-.19-.14-.29.46-.25.91-.5,1.37-.75-.57.08-1.15.15-1.73.22-.06.07-.2.1-.29,0-.32-.31-1.33-1.05-1.24-1.5.04-.19.47-.32.61-.38.36-.15.71-.31,1.07-.46-.87-.01-1.72.04-2.58.17-.14.02-.23-.16-.12-.22.68-.4,1.39-.68,2.14-.92-.3.02-.61.05-.9.09-.43.07-1.17.43-1.61.33-.59-.13-1.05-1.02-1.25-1.56-.21-.05-.28-.37-.04-.43,3.76-.9,8.01.66,10.24,3.49,1.94,2.47,2.21,5.57,1.14,8.24,1.98-2.95,5.48-5.18,9.35-5.98,2.08-.43,4.49-.44,6.47.49,2.28,1.09,3.1,3.14,3.67,5.16.05.18-.24.32-.4.19-.48-.38-1.6-1.52-2.28-1.62-.59-.09-.36,0-.31.57.03.4.19.81.31,1.2.04.14-.16.27-.3.2-.78-.37-1.57-1.11-2.35-1.39-.05-.02-.09-.03-.13-.05.06.35.34,1.58.35,1.67.02.12-.09.22-.23.2-1.07-.14-1.85.17-2.87.19-.4,0-.36.12-.61.05-.66-.19-.92-.85-1.49-1.1-.4-.58-.62-.59-.64-.02.09.49.26.96.54,1.41.09.16-.17.35-.33.21-.37-.32-1.12-1.13-1.7-1.12-.42-.21-.5-.07-.23.42.06.35.12.69.2,1.04.03.16-.18.25-.33.16-.42-.31-.89-.52-1.42-.63.04.31.08.62.11.94.02.14-.14.25-.29.19-.68.1-1.36.19-2.04.28-.03.08-.15.12-.24.11-.49-.17-.74-.04-.76.41,5.55-1.43,11.89-.71,17.1,1.75,2.32,1.1,4.41,2.55,5.14,4.81.64,2,.19,4.08-.54,5.96Zm-29.65.58h1.19c-.96-2.7-.92-5.63-.03-8.36-.27.32-.39.7-.36,1.13,0,.12-.18.2-.31.14-1.06-.43-.66.31-1,1-.21.42-.49.55-.81.85-.1.09-.48-.13-.52-.09-.3.38.39.84.4,1.26.02.47.16.36-.14.72-.05.05-.14.09-.22.07-.27-.05-1.27-.51-1.34-.45-.16.11.86,1.76.97,1.97.08.14-.11.32-.29.24-.01,0-.64-.26-.99-.45.36.4,1.06,1.25,1.11,1.31.05.06.03.12-.02.16.08.03.15.1.13.2-.12.69.05,2.67-.81,3.07-.32.15-.77,0-1.17-.21.5.67,1,1.34,1.5,2,.11.14-.04.36-.25.27-.54-.23-1.07-.46-1.61-.68.76.75,1.39,1.56,1.92,2.44l1.31,1.31v-7.87l1.32-.02Zm5.83,0h.16c-.08,0-.14-.02-.19-.02,0,0,.02.02.03.02Zm-.42-5.13s-.04.03-.06.03c-.71.1.28,1.28.37,1.68.02.09-.14.17-.11.24.15.54.35,1.23,1.01,1.45.2.07.17.3,0,.36-1.07.43-1.14.52-.17,1.07.14.08.1.23,0,.3h.13l1.18.02c-.71-1.73-1.53-3.43-2.35-5.15ZM16.53,69.46c0,1.51-.54,2.66-1.62,3.44-1.08.78-2.32,1.29-3.7,1.52-1.38.23-2.79.34-4.21.34h-3.54c-1.01,0-1.78-.15-2.32-.46s-.8-.75-.8-1.34v-7.01c0-.58.27-1.03.8-1.33.53-.31,1.3-.46,2.32-.46h3.54c1.42,0,2.82.11,4.21.34,1.38.23,2.62.73,3.7,1.52,1.08.78,1.62,1.93,1.62,3.44Zm-5.73,0c0-.71-.14-1.28-.42-1.73-.28-.44-.7-.77-1.26-.98-.56-.21-1.27-.31-2.12-.31h-1v6.03h1c.85,0,1.56-.1,2.12-.31s.98-.53,1.26-.98c.28-.44.42-1.02.42-1.73Zm21.82,3.48c.09.19.13.38.13.57,0,.44-.23.78-.69,1.04-.46.25-1.08.38-1.87.38-.91,0-1.6-.13-2.06-.39-.46-.26-.81-.67-1.04-1.22l-.28-.69h-4.9l-.28.69c-.23.56-.57.97-1.04,1.22-.46.26-1.15.39-2.06.39-.78,0-1.41-.13-1.87-.38-.46-.25-.69-.6-.69-1.04,0-.18.04-.37.13-.57l3.49-7.23c.26-.53.66-.92,1.2-1.17.54-.26,1.24-.39,2.11-.39h2.92c.86,0,1.57.13,2.11.39.54.26.94.65,1.2,1.17l3.48,7.23Zm-6.72-2.61l-1.37-3.42c-.07-.18-.11-.35-.16-.52-.05.17-.09.34-.16.52l-1.37,3.42h3.06Zm21.54-5.71c-.45-.31-1.07-.46-1.85-.46-.84,0-1.48.15-1.91.45-.43.3-.64.75-.64,1.34v4.03l-2.35-4.24c-.29-.52-.76-.91-1.43-1.18-.67-.27-1.47-.4-2.43-.4h-.43c-.68,0-1.3.07-1.84.21-.54.14-.97.34-1.27.61-.31.27-.46.59-.46.97v7.01c0,1.2.83,1.8,2.49,1.8s2.47-.6,2.47-1.8v-4.76l3.04,4.97c.32.51.82.91,1.52,1.18s1.52.41,2.49.41h.03c1.02,0,1.82-.15,2.4-.46.58-.31.86-.75.86-1.34v-7.01c0-.58-.23-1.02-.68-1.33Zm8.7,2.03c.52-.21,1.1-.31,1.73-.31.41,0,.74.04,1,.12s.46.18.6.3c.14.12.29.28.45.47.17.21.33.37.5.5s.4.24.71.33c.31.09.71.13,1.21.13.44,0,.84-.06,1.21-.18.37-.12.67-.28.89-.49.22-.21.33-.45.33-.71,0-.54-.33-1.01-.99-1.43-.66-.42-1.52-.74-2.58-.97-1.06-.23-2.17-.35-3.32-.35-1.54,0-3,.16-4.37.49-1.38.33-2.52.89-3.44,1.7-.92.81-1.38,1.89-1.38,3.26s.46,2.44,1.38,3.25c.92.81,2.06,1.37,3.44,1.7,1.38.33,2.83.49,4.37.49,1.13,0,2.23-.11,3.3-.34,1.07-.23,1.93-.55,2.6-.97.67-.42,1-.9,1-1.43,0-.26-.11-.5-.33-.71-.22-.21-.51-.38-.89-.49-.37-.12-.78-.18-1.21-.18-.5,0-.9.04-1.21.13s-.54.2-.71.33-.33.3-.5.5c-.16.19-.31.35-.45.47-.14.12-.35.22-.6.3-.26.08-.59.12-1,.12-.65,0-1.23-.1-1.74-.31s-.93-.54-1.24-1.01c-.31-.47-.47-1.08-.47-1.83s.16-1.37.47-1.84c.31-.47.73-.81,1.25-1.01Zm20.92-.21c1,0,1.75-.1,2.24-.29.49-.19.74-.48.74-.86,0-.76-.99-1.14-2.98-1.14h-8.06c-1.01,0-1.79.15-2.32.46-.54.31-.8.75-.8,1.33v7.01c0,.59.27,1.04.8,1.34s1.31.46,2.32.46h8.06c1,0,1.75-.1,2.24-.29.49-.19.74-.48.74-.85s-.25-.66-.74-.86c-.49-.19-1.24-.29-2.24-.29h-5.51v-1.86h4.26c.98,0,1.68-.09,2.08-.28s.61-.47.61-.86-.2-.67-.61-.86-1.1-.28-2.08-.28h-4.26v-1.89h5.51Z"/>
    </clipPath>
    <linearGradient id="Degradado_sin_nombre_7-2" data-name="Degradado sin nombre 7" x1="64.58" y1="74.94" x2="64.58" y2="0" xlink:href="#Degradado_sin_nombre_7"/>
  </defs>
  <g id="Capa_1-2" data-name="Capa 1">
    <g>
      <path class="cls-3" d="m16.49,62.41H0V28.25h16.49v34.16Zm12.73-5.01c3.34-3.34,5.01-7.37,5.01-12.09s-1.67-8.78-5.01-12.12c-3.09-3.09-6.8-4.76-11.11-4.98v34.18h.07c4.28-.24,7.96-1.91,11.04-4.98Zm7.5,5.16h16.15l-.02-1.27v-31.79l-.02-1.27h-16.1l.02,1.27v31.79l-.02,1.27Zm17.44-.02l34.66.02-17.33-34.45-17.33,34.43Zm35.76-.05h16.93V28.32h-16.93v34.16Zm57.18-34.79c-.07.19-.36.13-.46-.01-.16-.24-1.48-2.88-1.67-2.9-.06,0-1.97,1.57-2.15,1.68-.12.07-.34.04-.4-.1-.28-.77-.12-1.26-.06-2.04.04-.21.08-.43.1-.65-.22-.68-.5-.69-.83-.04-.53.27-1.01,1.04-1.4,1.44-.17.17-.44.04-.45-.17,0-.82.04-1.62.12-2.43-.6.44-1.11.93-1.54,1.51-.05.07-.19.09-.28.06-1.06-.39-2.12-.75-3.21-1.06-.13-.04-.19-.19-.14-.29.39-.79.72-1.56.88-2.4-.82.57-1.64,1.13-2.47,1.7-.17.12-.4-.03-.39-.2.04-.92.12-1.83.25-2.73-.58.49-.97.96-1.37,1.68-.05.09-.2.17-.32.1-1.03-.52-2.01-.78-3.2-.84-.15,0-.23-.14-.22-.25.02-.47,0-.93-.06-1.4-.32.33-.64.64-1,.94-.07.06-.15.05-.23.02-.08-.03-.13-.09-.15-.16-.44-2.02-.62-.53-1.83-.76-.02,0-.03,0-.05-.01v.02c.64.31,1.31.64,1.98.99,3.25,1.72,6.47,3.93,8.11,6.8.81,1.42,1.48,3.15.93,4.68-.52,1.45-1.96,2.49-3.33,3.36-.19.12-.39-.07-.32-.22-.06-.01-.12-.05-.14-.1,0-.03,0-.06,0-.09.5-1.2.89-2.4,1.14-3.65-.59.56-1.22,1.05-1.95,1.52-.14.09-.32.01-.37-.11-.01-.03-.02-.06-.01-.09.09-.93.31-1.74.71-2.55-.54.29-1.07.58-1.61.87-.04.02-.08.03-.12.03.28.6.56,1.19.82,1.79.1.22.2.45.3.67.25.57.49,1.13.73,1.7,1.44,3.44,2.65,6.97,3.18,10.56.68,4.63,1.16,9.28,1.62,13.92.19,1.95.33,3.9.32,5.85,0,.92.31,2.69-.13,3.79.55-.51,1.16-.96,1.85-1.37.16-.09.41.05.32.21-.48.88-1.45,2.18-1.61,3.29.83-.8,1.77-1.43,2.99-1.8.24-.07.41.15.29.32-.41.58-.84,1.17-1.25,1.75.87-.49,1.97-.92,2.74-.53.15.07.22.25.06.35-1.81,1.11-3.61,2.29-4.12,4.26-.03.11-.12.16-.22.18-.04.11-.15.2-.32.19-4.57-.17-9.16-.67-13.59-1.82-.18-.05-.13-.27.02-.3-.55-1.48-1.23-2.89-2.12-4.27-.17-.26.28-.42.48-.23.73.68,1.48,1.36,2.18,2.07,0-1.8-.33-3.57-.99-5.31-.09-.23.24-.42.44-.21.97,1.03,1.64,2.17,2.25,3.35.03-.61-.02-1.2-.18-1.82-.05-.22.34-.37.49-.16.1.13.19.26.28.4,2.14-7.35,1.14-15.13,1.32-22.71.09-3.83-.11-7.61-1.06-11.4-.23-.93-.52-1.82-.84-2.71-.14-.39-.3-.78-.46-1.17v1.13s.04.02.06.03c.04.02.06.05.08.08.03.07.02.15-.03.19-.04.03-.07.07-.1.11v32.21l-1.32.07-15.78-16.44v-17.74l.98.98c-.29-1.66-.18-3.36.3-4.94.66-2.19,2.04-4.15,3.96-5.66.83-.65,2.17-1.05,2.92-1.73.01,0,.03-.02.04-.03.3-.01.5-.12.59-.31-.17-.09-.33-.2-.45-.35-.11.09-.03-.2-.19.35.11.08.14.25-.03.31l-.5.18c-.08.03-.19,0-.24-.06-.59-.7.06-.14-.54.09-.66.26-2.13.84-2.43,1.32-.07.11-.26.15-.36.03-.18-.22-1.02-1.6-1.31-1.57-.1.01-.27.45-.46.98-.27.77-.56,1.75-.61,1.88-.06.15-.31.12-.38,0-.14-.24-.27-.48-.41-.73.04.44-.04.87-.32,1.26-.93,1.26-3.66.67-4.15,2.27-.04.16-.31.09-.34-.05-.09-.4-.15-.81-.22-1.22-.06-.36-.12-.71-.22-1.06-.05-.17-.05-.33-.04-.43-.02.1-.06.27-.14.53-.41,1.4-1.04,2.76-1.61,4.12-.06.15-.32.13-.4,0-.31-.53-.58-1.06-.8-1.61-.18.83-.36,1.66-.56,2.49-.01.05-.05.08-.08.1-.04.13-.25.21-.38.07-3.12-3.35-.85-7.55,2.58-9.69,3.99-2.5,10.08-3.75,14.88-1.72-.3-.15-.61-.37-.76-.49-.44-.38-.06-.95-.38-1.21-.47-.37-1.39.46-1.94-.05-.11-.11-.06-.29-.1-.41-.1-.27.24-.58-.21-.73-.18-.06-.92.4-1.09.48-.12.06-.29-.07-.26-.18.11-.4.26-.75.48-1.09-.54.17-1.01.37-1.55.65-.05.03-.13.05-.19.02-.55-.27-1.1-.53-1.65-.81-.11.02-.24-.04-.24-.17.13-1.53-.44-.5-1.56-.66-.28-.04-.38.05-.55-.2-.13-.2.16-.43.11-.54-.17-.36-2.05.34-2.43.44-.12.03-.28-.04-.25-.16.13-.53.9-.94,1.57-1.29-1.41.21-2.83.42-4.25.6-.03,0-.06,0-.08-.01,0,0,0,0-.02.01-.16.07-.29-.15-.16-.23,4.71-3.13,12.46-2.37,16.56,1.61.41-.32.83-.61,1.28-.87-.42.03-.81.11-1.21.27-.1.04-.2-.02-.25-.09-.39-.57-.77-1.52-.65-2.17.06-.3.25-.29.4-.56.2-.39.19-.21-.29-.27-.3-.04-.66,0-.97,0-.17,0-.32-.19-.14-.29.46-.25.91-.5,1.37-.75-.57.08-1.15.15-1.73.22-.06.07-.2.1-.29,0-.32-.31-1.33-1.05-1.24-1.5.04-.19.47-.32.61-.38.36-.15.71-.31,1.07-.46-.87-.01-1.72.04-2.58.17-.14.02-.23-.16-.12-.22.68-.4,1.39-.68,2.14-.92-.3.02-.61.05-.9.09-.43.07-1.17.43-1.61.33-.59-.13-1.05-1.02-1.25-1.56-.21-.05-.28-.37-.04-.43,3.76-.9,8.01.66,10.24,3.49,1.94,2.47,2.21,5.57,1.14,8.24,1.98-2.95,5.48-5.18,9.35-5.98,2.08-.43,4.49-.44,6.47.49,2.28,1.09,3.1,3.14,3.67,5.16.05.18-.24.32-.4.19-.48-.38-1.6-1.52-2.28-1.62-.59-.09-.36,0-.31.57.03.4.19.81.31,1.2.04.14-.16.27-.3.2-.78-.37-1.57-1.11-2.35-1.39-.05-.02-.09-.03-.13-.05.06.35.34,1.58.35,1.67.02.12-.09.22-.23.2-1.07-.14-1.85.17-2.87.19-.4,0-.36.12-.61.05-.66-.19-.92-.85-1.49-1.1-.4-.58-.62-.59-.64-.02.09.49.26.96.54,1.41.09.16-.17.35-.33.21-.37-.32-1.12-1.13-1.7-1.12-.42-.21-.5-.07-.23.42.06.35.12.69.2,1.04.03.16-.18.25-.33.16-.42-.31-.89-.52-1.42-.63.04.31.08.62.11.94.02.14-.14.25-.29.19-.68.1-1.36.19-2.04.28-.03.08-.15.12-.24.11-.49-.17-.74-.04-.76.41,5.55-1.43,11.89-.71,17.1,1.75,2.32,1.1,4.41,2.55,5.14,4.81.64,2,.19,4.08-.54,5.96Zm-29.65.58h1.19c-.96-2.7-.92-5.63-.03-8.36-.27.32-.39.7-.36,1.13,0,.12-.18.2-.31.14-1.06-.43-.66.31-1,1-.21.42-.49.55-.81.85-.1.09-.48-.13-.52-.09-.3.38.39.84.4,1.26.02.47.16.36-.14.72-.05.05-.14.09-.22.07-.27-.05-1.27-.51-1.34-.45-.16.11.86,1.76.97,1.97.08.14-.11.32-.29.24-.01,0-.64-.26-.99-.45.36.4,1.06,1.25,1.11,1.31.05.06.03.12-.02.16.08.03.15.1.13.2-.12.69.05,2.67-.81,3.07-.32.15-.77,0-1.17-.21.5.67,1,1.34,1.5,2,.11.14-.04.36-.25.27-.54-.23-1.07-.46-1.61-.68.76.75,1.39,1.56,1.92,2.44l1.31,1.31v-7.87l1.32-.02Zm5.83,0h.16c-.08,0-.14-.02-.19-.02,0,0,.02.02.03.02Zm-.42-5.13s-.04.03-.06.03c-.71.1.28,1.28.37,1.68.02.09-.14.17-.11.24.15.54.35,1.23,1.01,1.45.2.07.17.3,0,.36-1.07.43-1.14.52-.17,1.07.14.08.1.23,0,.3h.13l1.18.02c-.71-1.73-1.53-3.43-2.35-5.15ZM16.53,69.46c0,1.51-.54,2.66-1.62,3.44-1.08.78-2.32,1.29-3.7,1.52-1.38.23-2.79.34-4.21.34h-3.54c-1.01,0-1.78-.15-2.32-.46s-.8-.75-.8-1.34v-7.01c0-.58.27-1.03.8-1.33.53-.31,1.3-.46,2.32-.46h3.54c1.42,0,2.82.11,4.21.34,1.38.23,2.62.73,3.7,1.52,1.08.78,1.62,1.93,1.62,3.44Zm-5.73,0c0-.71-.14-1.28-.42-1.73-.28-.44-.7-.77-1.26-.98-.56-.21-1.27-.31-2.12-.31h-1v6.03h1c.85,0,1.56-.1,2.12-.31s.98-.53,1.26-.98c.28-.44.42-1.02.42-1.73Zm21.82,3.48c.09.19.13.38.13.57,0,.44-.23.78-.69,1.04-.46.25-1.08.38-1.87.38-.91,0-1.6-.13-2.06-.39-.46-.26-.81-.67-1.04-1.22l-.28-.69h-4.9l-.28.69c-.23.56-.57.97-1.04,1.22-.46.26-1.15.39-2.06.39-.78,0-1.41-.13-1.87-.38-.46-.25-.69-.6-.69-1.04,0-.18.04-.37.13-.57l3.49-7.23c.26-.53.66-.92,1.2-1.17.54-.26,1.24-.39,2.11-.39h2.92c.86,0,1.57.13,2.11.39.54.26.94.65,1.2,1.17l3.48,7.23Zm-6.72-2.61l-1.37-3.42c-.07-.18-.11-.35-.16-.52-.05.17-.09.34-.16.52l-1.37,3.42h3.06Zm21.54-5.71c-.45-.31-1.07-.46-1.85-.46-.84,0-1.48.15-1.91.45-.43.3-.64.75-.64,1.34v4.03l-2.35-4.24c-.29-.52-.76-.91-1.43-1.18-.67-.27-1.47-.4-2.43-.4h-.43c-.68,0-1.3.07-1.84.21-.54.14-.97.34-1.27.61-.31.27-.46.59-.46.97v7.01c0,1.2.83,1.8,2.49,1.8s2.47-.6,2.47-1.8v-4.76l3.04,4.97c.32.51.82.91,1.52,1.18s1.52.41,2.49.41h.03c1.02,0,1.82-.15,2.4-.46.58-.31.86-.75.86-1.34v-7.01c0-.58-.23-1.02-.68-1.33Zm8.7,2.03c.52-.21,1.1-.31,1.73-.31.41,0,.74.04,1,.12s.46.18.6.3c.14.12.29.28.45.47.17.21.33.37.5.5s.4.24.71.33c.31.09.71.13,1.21.13.44,0,.84-.06,1.21-.18.37-.12.67-.28.89-.49.22-.21.33-.45.33-.71,0-.54-.33-1.01-.99-1.43-.66-.42-1.52-.74-2.58-.97-1.06-.23-2.17-.35-3.32-.35-1.54,0-3,.16-4.37.49-1.38.33-2.52.89-3.44,1.7-.92.81-1.38,1.89-1.38,3.26s.46,2.44,1.38,3.25c.92.81,2.06,1.37,3.44,1.7,1.38.33,2.83.49,4.37.49,1.13,0,2.23-.11,3.3-.34,1.07-.23,1.93-.55,2.6-.97.67-.42,1-.9,1-1.43,0-.26-.11-.5-.33-.71-.22-.21-.51-.38-.89-.49-.37-.12-.78-.18-1.21-.18-.5,0-.9.04-1.21.13s-.54.2-.71.33-.33.3-.5.5c-.16.19-.31.35-.45.47-.14.12-.35.22-.6.3-.26.08-.59.12-1,.12-.65,0-1.23-.1-1.74-.31s-.93-.54-1.24-1.01c-.31-.47-.47-1.08-.47-1.83s.16-1.37.47-1.84c.31-.47.73-.81,1.25-1.01Zm20.92-.21c1,0,1.75-.1,2.24-.29.49-.19.74-.48.74-.86,0-.76-.99-1.14-2.98-1.14h-8.06c-1.01,0-1.79.15-2.32.46-.54.31-.8.75-.8,1.33v7.01c0,.59.27,1.04.8,1.34s1.31.46,2.32.46h8.06c1,0,1.75-.1,2.24-.29.49-.19.74-.48.74-.85s-.25-.66-.74-.86c-.49-.19-1.24-.29-2.24-.29h-5.51v-1.86h4.26c.98,0,1.68-.09,2.08-.28s.61-.47.61-.86-.2-.67-.61-.86-1.1-.28-2.08-.28h-4.26v-1.89h5.51Z"/>
      <g class="cls-4">
        <rect class="cls-1" x="-35.42" y="0" width="200" height="74.94"/>
      </g>
    </g>
  </g>
</svg>